ffmpeg version N-55863-g9f38fac053-static https://johnvansickle.com/ffmpeg/  Copyright (c) 2000-2021 the FFmpeg developers
  built with gcc 8 (Debian 8.3.0-6)
  configuration: --enable-gpl --enable-version3 --enable-static --disable-debug --disable-ffplay --disable-indev=sndio --disable-outdev=sndio --cc=gcc --enable-fontconfig --enable-frei0r --enable-gnutls --enable-gmp --enable-libgme --enable-gray --enable-libaom --enable-libfribidi --enable-libass --enable-libvmaf --enable-libfreetype --enable-libmp3lame --enable-libopencore-amrnb --enable-libopencore-amrwb --enable-libopenjpeg --enable-librubberband --enable-libsoxr --enable-libspeex --enable-libsrt --enable-libvorbis --enable-libopus --enable-libtheora --enable-libvidstab --enable-libvo-amrwbenc --enable-libvpx --enable-libwebp --enable-libx264 --enable-libx265 --enable-libxml2 --enable-libdav1d --enable-libxvid --enable-libzvbi --enable-libzimg
  libavutil      56. 64.100 / 56. 64.100
  libavcodec     58.119.100 / 58.119.100
  libavformat    58. 65.101 / 58. 65.101
  libavdevice    58. 11.103 / 58. 11.103
  libavfilter     7.100.100 /  7.100.100
  libswscale      5.  8.100 /  5.  8.100
  libswresample   3.  8.100 /  3.  8.100
  libpostproc    55.  8.100 / 55.  8.100
Input #0, mov,mp4,m4a,3gp,3g2,mj2, from '/home/yiaapc5/public_html/f_data/data_userfiles/user_uploads/3995073565/v/1613040117.mp4':
  Metadata:
    major_brand     : mp42
    minor_version   : 0
    compatible_brands: isommp42
    creation_time   : 2016-08-11T12:55:28.000000Z
  Duration: 00:04:52.92, start: 0.000000, bitrate: 679 kb/s
    Stream #0:0(und): Video: h264 (Main) (avc1 / 0x31637661), yuv420p, 1280x720, 551 kb/s, 20 fps, 20 tbr, 90k tbn, 40 tbc (default)
    Metadata:
      creation_time   : 2016-08-11T12:55:28.000000Z
      handler_name    : ISO Media file produced by Google Inc.
      vendor_id       : [0][0][0][0]
    Stream #0:1(und): Audio: aac (LC) (mp4a / 0x6134706D), 44100 Hz, stereo, fltp, 125 kb/s (default)
    Metadata:
      creation_time   : 2016-08-11T12:55:28.000000Z
      handler_name    : ISO Media file produced by Google Inc.
      vendor_id       : [0][0][0][0]
Codec AVOption rc_eq (Set rate control equation. When computing the expression, besides the standard functions defined in the section 'Expression Evaluation', the following functions are available: bits2qp(bits), qp2bits(qp). Also the following constants are available: iTex pTex tex mv fCode iCount mcVar var isI isP isB avgQP qComp avgIITex avgPITex avgPPTex avgBPTex avgTex.) specified for output file #0 (/home/yiaapc5/public_html/f_data/data_userfiles/user_media/3995073565/v/a0a316002df62047c6741cdb511941f0.mob.nomob.mp4) has not been used for any stream. The most likely reason is either wrong type (e.g. a video option with no video streams) or that it is a private option of some encoder which was not actually used for any stream.
Stream mapping:
  Stream #0:0 -> #0:0 (h264 (native) -> h264 (libx264))
  Stream #0:1 -> #0:1 (aac (native) -> aac (native))
Press [q] to stop, [?] for help
[libx264 @ 0x6877ec0] Application has requested 32 threads. Using a thread count greater than 16 is not recommended.
[libx264 @ 0x6877ec0] using SAR=136/135
[libx264 @ 0x6877ec0] frame MB size (30x17) > level limit (396)
[libx264 @ 0x6877ec0] VBV bitrate (10000) > level limit (768)
[libx264 @ 0x6877ec0] VBV buffer (10000) > level limit (2000)
[libx264 @ 0x6877ec0] using cpu capabilities: MMX2 SSE2Fast SSSE3 SSE4.2 AVX
[libx264 @ 0x6877ec0] profile Constrained Baseline, level 1.3, 4:2:0, 8-bit
[libx264 @ 0x6877ec0] 264 - core 161 r3040 35417dc - H.264/MPEG-4 AVC codec - Copyleft 2003-2021 - http://www.videolan.org/x264.html - options: cabac=0 ref=1 deblock=1:0:0 analyse=0x1:0 me=hex subme=1 psy=1 psy_rd=1.00:0.00 mixed_ref=0 me_range=16 chroma_me=1 trellis=0 8x8dct=0 cqm=0 deadzone=21,11 fast_pskip=1 chroma_qp_offset=0 threads=32 lookahead_threads=2 sliced_threads=0 nr=0 decimate=1 interlaced=0 bluray_compat=0 constrained_intra=0 bframes=0 weightp=0 keyint=300 keyint_min=25 scenecut=40 intra_refresh=0 rc_lookahead=30 rc=abr mbtree=1 bitrate=680 ratetol=1.0 qcomp=0.60 qpmin=10 qpmax=51 qpstep=4 vbv_maxrate=10000 vbv_bufsize=10000 nal_hrd=none filler=0 ip_ratio=1.41 aq=1:1.00
Output #0, mp4, to '/home/yiaapc5/public_html/f_data/data_userfiles/user_media/3995073565/v/a0a316002df62047c6741cdb511941f0.mob.nomob.mp4':
  Metadata:
    major_brand     : mp42
    minor_version   : 0
    compatible_brands: isommp42
    encoder         : Lavf58.65.101
    Stream #0:0(und): Video: h264 (avc1 / 0x31637661), yuv420p(tv, progressive), 480x272 [SAR 136:135 DAR 16:9], q=2-31, 680 kb/s, 20 fps, 10240 tbn (default)
    Metadata:
      creation_time   : 2016-08-11T12:55:28.000000Z
      handler_name    : ISO Media file produced by Google Inc.
      vendor_id       : [0][0][0][0]
      encoder         : Lavc58.119.100 libx264
    Side data:
      cpb: bitrate max/min/avg: 10000000/0/680000 buffer size: 10000000 vbv_delay: N/A
    Stream #0:1(und): Audio: aac (LC) (mp4a / 0x6134706D), 44100 Hz, stereo, fltp, 125 kb/s (default)
    Metadata:
      creation_time   : 2016-08-11T12:55:28.000000Z
      handler_name    : ISO Media file produced by Google Inc.
      vendor_id       : [0][0][0][0]
      encoder         : Lavc58.119.100 aac
frame=    1 fps=0.0 q=0.0 size=       0kB time=00:00:00.41 bitrate=   0.9kbits/s speed=9.48x    frame=  178 fps=0.0 q=10.0 size=       0kB time=00:00:09.31 bitrate=   0.0kbits/s speed=17.1x    frame=  376 fps=359 q=10.0 size=     256kB time=00:00:19.15 bitrate= 109.5kbits/s speed=18.3x    frame=  571 fps=369 q=10.0 size=     512kB time=00:00:29.00 bitrate= 144.6kbits/s speed=18.7x    frame=  769 fps=375 q=10.0 size=     768kB time=00:00:38.93 bitrate= 161.6kbits/s speed=  19x    frame=  965 fps=378 q=10.0 size=    1024kB time=00:00:48.83 bitrate= 171.8kbits/s speed=19.2x    frame= 1159 fps=380 q=10.0 size=    1024kB time=00:00:58.60 bitrate= 143.1kbits/s speed=19.2x    frame= 1357 fps=382 q=10.0 size=    1280kB time=00:01:08.24 bitrate= 153.7kbits/s speed=19.2x    frame= 1554 fps=384 q=10.0 size=    1536kB time=00:01:18.06 bitrate= 161.2kbits/s speed=19.3x    frame= 1753 fps=385 q=10.0 size=    1792kB time=00:01:27.93 bitrate= 166.9kbits/s speed=19.3x    frame= 1948 fps=385 q=10.0 size=    2048kB time=00:01:37.91 bitrate= 171.3kbits/s speed=19.4x    frame= 2140 fps=385 q=10.0 size=    2304kB time=00:01:47.34 bitrate= 175.8kbits/s speed=19.3x    frame= 2320 fps=383 q=10.0 size=    2560kB time=00:01:56.51 bitrate= 180.0kbits/s speed=19.2x    frame= 2500 fps=381 q=10.0 size=    2560kB time=00:02:05.31 bitrate= 167.3kbits/s speed=19.1x    frame= 2680 fps=380 q=10.0 size=    2816kB time=00:02:14.39 bitrate= 171.6kbits/s speed=  19x    frame= 2863 fps=379 q=10.0 size=    3072kB time=00:02:23.77 bitrate= 175.0kbits/s speed=  19x    frame= 3049 fps=378 q=10.0 size=    3072kB time=00:02:32.76 bitrate= 164.7kbits/s speed=  19x    frame= 3229 fps=377 q=10.0 size=    3328kB time=00:02:41.91 bitrate= 168.4kbits/s speed=18.9x    frame= 3409 fps=376 q=10.0 size=    3584kB time=00:02:50.87 bitrate= 171.8kbits/s speed=18.9x    frame= 3590 fps=376 q=10.0 size=    3840kB time=00:03:00.23 bitrate= 174.5kbits/s speed=18.9x    frame= 3769 fps=375 q=10.0 size=    3840kB time=00:03:08.77 bitrate= 166.6kbits/s speed=18.8x    frame= 3954 fps=374 q=10.0 size=    4096kB time=00:03:18.18 bitrate= 169.3kbits/s speed=18.8x    frame= 4137 fps=374 q=10.0 size=    4352kB time=00:03:27.23 bitrate= 172.0kbits/s speed=18.7x    frame= 4324 fps=374 q=10.0 size=    4352kB time=00:03:36.68 bitrate= 164.5kbits/s speed=18.7x    frame= 4503 fps=373 q=10.0 size=    4608kB time=00:03:45.65 bitrate= 167.3kbits/s speed=18.7x    frame= 4690 fps=373 q=10.0 size=    4864kB time=00:03:55.12 bitrate= 169.5kbits/s speed=18.7x    frame= 4876 fps=373 q=10.0 size=    5120kB time=00:04:04.20 bitrate= 171.8kbits/s speed=18.7x    frame= 5056 fps=373 q=10.0 size=    5376kB time=00:04:13.16 bitrate= 174.0kbits/s speed=18.7x    frame= 5243 fps=373 q=10.0 size=    5376kB time=00:04:22.54 bitrate= 167.7kbits/s speed=18.7x    frame= 5425 fps=372 q=10.0 size=    5632kB time=00:04:31.92 bitrate= 169.7kbits/s speed=18.7x    frame= 5605 fps=372 q=10.0 size=    5888kB time=00:04:40.75 bitrate= 171.8kbits/s speed=18.6x    frame= 5785 fps=372 q=10.0 size=    5888kB time=00:04:49.94 bitrate= 166.4kbits/s speed=18.6x    frame= 5858 fps=371 q=-1.0 Lsize=    6616kB time=00:04:52.89 bitrate= 185.1kbits/s speed=18.6x    
video:1987kB audio:4489kB subtitle:0kB other streams:0kB global headers:0kB muxing overhead: 2.169506%
[libx264 @ 0x6877ec0] frame I:21    Avg QP:10.08  size: 13629
[libx264 @ 0x6877ec0] frame P:5837  Avg QP:10.04  size:   299
[libx264 @ 0x6877ec0] mb I  I16..4: 75.3%  0.0% 24.7%
[libx264 @ 0x6877ec0] mb P  I16..4:  1.5%  0.0%  0.0%  P16..4:  2.9%  0.0%  0.0%  0.0%  0.0%    skip:95.6%
[libx264 @ 0x6877ec0] final ratefactor: -15.27
[libx264 @ 0x6877ec0] coded y,uvDC,uvAC intra: 19.6% 6.0% 5.6% inter: 1.1% 0.4% 0.4%
[libx264 @ 0x6877ec0] i16 v,h,dc,p: 86% 13%  1%  0%
[libx264 @ 0x6877ec0] i4 v,h,dc,ddl,ddr,vr,hd,vl,hu: 28% 46% 10%  3%  3%  2%  3%  2%  4%
[libx264 @ 0x6877ec0] i8c dc,h,v,p: 94%  4%  2%  0%
[libx264 @ 0x6877ec0] kb/s:55.55
[aac @ 0x687ae00] Qavg: 209.593
